HIERARCHY
ROOT hip
{
  OFFSET 0 0 0
  CHANNELS 6 Xposition Yposition Zposition Zrotation Yrotation Xrotation
  JOINT abdomen
  {
    OFFSET 0 20.6881 -0.73152
    CHANNELS 3 Zrotation Xrotation Yrotation
    JOINT chest
    {
      OFFSET 0 11.7043 -0.48768
      CHANNELS 3 Zrotation Xrotation Yrotation
      JOINT neck
      {
        OFFSET 0 22.1894 -2.19456
        CHANNELS 3 Zrotation Xrotation Yrotation
        JOINT head
        {
          OFFSET -0.24384 7.07133 1.2192
          CHANNELS 3 Zrotation Xrotation Yrotation
          JOINT leftEye
          {
            OFFSET 4.14528 8.04674 8.04672
            CHANNELS 3 Zrotation Xrotation Yrotation
            End Site
            {
              OFFSET 1 0 0
            }
          }
          JOINT rightEye
          {
            OFFSET -3.6576 8.04674 8.04672
            CHANNELS 3 Zrotation Xrotation Yrotation
            End Site
            {
              OFFSET 1 0 0
            }
          }
        }
      }
      JOINT rCollar
      {
        OFFSET -2.68224 19.2634 -4.8768
        CHANNELS 3 Zrotation Xrotation Yrotation
        JOINT rShldr
        {
          OFFSET -8.77824 -1.95073 1.46304
          CHANNELS 3 Zrotation Xrotation Yrotation
          JOINT rForeArm
          {
            OFFSET -28.1742 -1.7115 0.48768
            CHANNELS 3 Zrotation Xrotation Yrotation
            JOINT rHand
            {
              OFFSET -22.5879 0.773209 7.07136
              CHANNELS 3 Zrotation Xrotation Yrotation
              JOINT rThumb1
              {
                OFFSET -1.2192 -0.487915 3.41376
                CHANNELS 3 Zrotation Xrotation Yrotation
                JOINT rThumb2
                {
                  OFFSET -3.37035 -0.52449 3.41376
                  CHANNELS 3 Zrotation Xrotation Yrotation
                  End Site
                  {
                    OFFSET -1.78271 -1.18214 1.43049
                  }
                }
              }
              JOINT rIndex1
              {
                OFFSET -7.75947 0.938293 5.60832
                CHANNELS 3 Zrotation Xrotation Yrotation
                JOINT rIndex2
                {
                  OFFSET -2.54057 -0.884171 1.56538
                  CHANNELS 3 Zrotation Xrotation Yrotation
                  End Site
                  {
                    OFFSET -1.62519 -0.234802 1.16502
                  }
                }
              }
              JOINT rMid1
              {
                OFFSET -8.24714 1.18213 3.41376
                CHANNELS 3 Zrotation Xrotation Yrotation
                JOINT rMid2
                {
                  OFFSET -3.10165 -0.590103 1.0647
                  CHANNELS 3 Zrotation Xrotation Yrotation
                  End Site
                  {
                    OFFSET -2.48547 -0.328903 0.83742
                  }
                }
              }
              JOINT rRing1
              {
                OFFSET -8.82822 0.546677 1.51678
                CHANNELS 3 Zrotation Xrotation Yrotation
                JOINT rRing2
                {
                  OFFSET -2.60934 -0.819778 -0.0198488
                  CHANNELS 3 Zrotation Xrotation Yrotation
                  End Site
                  {
                    OFFSET -2.33842 -0.294052 0.168128
                  }
                }
              }
              JOINT rPinky1
              {
                OFFSET -8.27202 -0.0477905 -0.4584
                CHANNELS 3 Zrotation Xrotation Yrotation
                JOINT rPinky2
                {
                  OFFSET -1.82734 -0.647385 -0.700984
                  CHANNELS 3 Zrotation Xrotation Yrotation
                  End Site
                  {
                    OFFSET -1.69225 -0.51767 -0.607171
                  }
                }
              }
            }
          }
        }
      }
      JOINT lCollar
      {
        OFFSET 2.68224 19.2634 -4.8768
        CHANNELS 3 Zrotation Xrotation Yrotation
        JOINT lShldr
        {
          OFFSET 8.77824 -1.95073 1.46304
          CHANNELS 3 Zrotation Xrotation Yrotation
          JOINT lForeArm
          {
            OFFSET 28.1742 -1.7115 0.48768
            CHANNELS 3 Zrotation Xrotation Yrotation
            JOINT lHand
            {
              OFFSET 22.5879 0.773209 7.07136
              CHANNELS 3 Zrotation Xrotation Yrotation
              JOINT lThumb1
              {
                OFFSET 1.2192 -0.487915 3.41376
                CHANNELS 3 Zrotation Xrotation Yrotation
                JOINT lThumb2
                {
                  OFFSET 3.37035 -0.52449 3.41376
                  CHANNELS 3 Zrotation Xrotation Yrotation
                  End Site
                  {
                    OFFSET 1.78271 -1.18214 1.43049
                  }
                }
              }
              JOINT lIndex1
              {
                OFFSET 7.75947 0.938293 5.60832
                CHANNELS 3 Zrotation Xrotation Yrotation
                JOINT lIndex2
                {
                  OFFSET 2.54057 -0.884171 1.56538
                  CHANNELS 3 Zrotation Xrotation Yrotation
                  End Site
                  {
                    OFFSET 1.62519 -0.234802 1.16502
                  }
                }
              }
              JOINT lMid1
              {
                OFFSET 8.24714 1.18213 3.41376
                CHANNELS 3 Zrotation Xrotation Yrotation
                JOINT lMid2
                {
                  OFFSET 3.10165 -0.590103 1.0647
                  CHANNELS 3 Zrotation Xrotation Yrotation
                  End Site
                  {
                    OFFSET 2.48547 -0.328903 0.83742
                  }
                }
              }
              JOINT lRing1
              {
                OFFSET 8.82822 0.546677 1.51678
                CHANNELS 3 Zrotation Xrotation Yrotation
                JOINT lRing2
                {
                  OFFSET 2.60934 -0.819778 -0.0198488
                  CHANNELS 3 Zrotation Xrotation Yrotation
                  End Site
                  {
                    OFFSET 2.33842 -0.294052 0.168128
                  }
                }
              }
              JOINT lPinky1
              {
                OFFSET 8.27202 -0.0477905 -0.4584
                CHANNELS 3 Zrotation Xrotation Yrotation
                JOINT lPinky2
                {
                  OFFSET 1.82734 -0.647385 -0.700984
                  CHANNELS 3 Zrotation Xrotation Yrotation
                  End Site
                  {
                    OFFSET 1.69225 -0.51767 -0.607171
                  }
                }
              }
            }
          }
        }
      }
    }
  }
  JOINT rButtock
  {
    OFFSET -8.77824 4.35084 1.2192
    CHANNELS 3 Zrotation Xrotation Yrotation
    JOINT rThigh
    {
      OFFSET 0 -1.70687 -2.19456
      CHANNELS 3 Zrotation Xrotation Yrotation
      JOINT rShin
      {
        OFFSET 0 -36.8199 0.73152
        CHANNELS 3 Zrotation Xrotation Yrotation
        JOINT rFoot
        {
          OFFSET 0.73152 -45.1104 -5.12064
          CHANNELS 3 Zrotation Xrotation Yrotation
          End Site
          {
            OFFSET -1.1221 -3.69964 12.103
          }
        }
      }
    }
  }
  JOINT lButtock
  {
    OFFSET 8.77824 4.35084 1.2192
    CHANNELS 3 Zrotation Xrotation Yrotation
    JOINT lThigh
    {
      OFFSET 0 -1.70687 -2.19456
      CHANNELS 3 Zrotation Xrotation Yrotation
      JOINT lShin
      {
        OFFSET 0 -36.8199 0.73152
        CHANNELS 3 Zrotation Xrotation Yrotation
        JOINT lFoot
        {
          OFFSET -0.73152 -45.1104 -5.12064
          CHANNELS 3 Zrotation Xrotation Yrotation
          End Site
          {
            OFFSET 1.1221 -3.69964 12.103
          }
        }
      }
    }
  }
}
MOTION
Frames:	4
Frame Time:	0.03333
-0.007627718150615692 -4.7752853482961655 -0.01817038282752037 -3.441894292831421 2.2356643676757812 6.452146053314209 -2.3779046535491943 14.055039405822754 3.2181477546691895 2.7785849571228027 -9.505359649658203 0.9797349572181702 -5.316244125366211 15.054012298583984 -4.20285177230835 9.072376251220703 -24.226049423217773 -6.2703657150268555 -0.06510643661022186 0.10924191027879715 0.1722453534603119 -0.17571507394313812 0.06975707411766052 -0.060172103345394135 -0.004546067677438259 -0.11646435409784317 0.10532722622156143 48.266082763671875 37.54146957397461 16.57109832763672 -27.2229061126709 -26.667644500732422 61.993011474609375 -0.18087051808834076 -10.458681106567383 -1.5706952810287476 -0.003196864388883114 -0.13300944864749908 0.047379933297634125 -0.05722826346755028 0.04058954864740372 -0.029332632198929787 -0.08839939534664154 0.043025191873311996 -0.11353603005409241 7.7008280754089355 5.401432037353516 0.3396228551864624 -0.02307654544711113 0.04522331431508064 -0.059603363275527954 2.893958568572998 0.9597378969192505 0.08233167231082916 -0.04272852838039398 -0.047511108219623566 -0.03786570578813553 10.351750373840332 0.719521701335907 -0.049303095787763596 0.04621412605047226 -0.11953023821115494 0.0807623639702797 2.1839678287506104 -0.8292192220687866 -0.23108722269535065 0.01644882932305336 0.06656041741371155 -0.06318642944097519 -54.57437515258789 40.35067367553711 -27.683856964111328 26.396446228027344 -24.450517654418945 -58.44635009765625 0.11557228863239288 -11.619927406311035 1.6609396934509277 -0.10435888171195984 -0.08429908752441406 0.027629218995571136 -0.07164094597101212 0.06845879554748535 -0.18345701694488525 -0.09285787492990494 -0.1287003457546234 -0.10598137974739075 -7.616464614868164 5.43718957901001 -0.4958222508430481 0.009656273759901524 -0.08022565394639969 0.015433430671691895 -2.752959728240967 1.0084989070892334 -0.09290562570095062 0.12676766514778137 -0.03622997924685478 0.010220526717603207 -10.18864917755127 0.806181788444519 0.00477486802265048 -0.07963557541370392 -0.026476243510842323 0.0007371815154328942 -2.160856246948242 -0.9202290177345276 0.13471156358718872 -0.0261802040040493 -0.06861566007137299 0.11850150674581528 -23.12958526611328 -39.07053756713867 -19.032703399658203 -1.200846552848816 63.2330322265625 2.392387866973877 -3.6861934661865234 -10.625529289245605 -10.121269226074219 -0.021747535094618797 0.08271823078393936 0.0034627795685082674 28.410070419311523 -38.1400032043457 21.46633529663086 1.402327299118042 64.48699188232422 -2.601917266845703 4.2747111320495605 -10.780877113342285 13.888187408447266
-0.019804760813713074 -4.793374985456467 -0.04157600924372673 -3.20263934135437 2.436960458755493 6.255075931549072 -2.2029783725738525 14.056070327758789 3.190561056137085 2.78408145904541 -9.55667495727539 0.958640992641449 -5.308794975280762 15.128375053405762 -4.211514949798584 9.177618026733398 -24.255718231201172 -6.255215167999268 -0.03294786065816879 0.15368501842021942 0.1866307556629181 -0.15083344280719757 0.0844847708940506 0.03578589856624603 -0.024529021233320236 -0.1940957009792328 0.0693654790520668 48.44395065307617 37.33735275268555 16.617286682128906 -27.07839584350586 -26.548572540283203 62.02559280395508 -0.18030788004398346 -10.74876880645752 -1.6173369884490967 -0.06636793911457062 -0.22202757000923157 0.050320133566856384 -0.06380320340394974 0.08737744390964508 0.054511647671461105 -0.08292343467473984 -0.005584327504038811 -0.10610496252775192 7.754034996032715 5.484408378601074 0.29261308908462524 -0.03360136225819588 0.10407856106758118 0.028872288763523102 2.7642176151275635 0.9725743532180786 0.09466364234685898 -0.01949797384440899 -0.004961226601153612 -0.00878911279141903 10.374909400939941 0.6901713013648987 -0.06645523756742477 0.1730451136827469 -0.1329660564661026 0.11133740842342377 2.1328623294830322 -0.8413493633270264 -0.27288004755973816 0.104526087641716 0.07108062505722046 -0.06723435968160629 -54.3635139465332 40.435638427734375 -27.993785858154297 26.338533401489258 -24.4523868560791 -58.46204376220703 0.12951824069023132 -11.48702335357666 1.6268316507339478 -0.11732752621173859 0.005113538354635239 0.03889337182044983 -0.01286859717220068 0.04038811847567558 -0.21247997879981995 -0.07585060596466064 -0.15802550315856934 -0.015693115070462227 -7.700993537902832 5.401935577392578 -0.4909387528896332 0.014303709380328655 -0.04128348454833031 -0.04092403128743172 -2.7383100986480713 1.0719635486602783 -0.008906419388949871 0.1053314208984375 -0.049413859844207764 -0.006857187487185001 -10.137369155883789 0.7911514639854431 -0.049992822110652924 -0.14239485561847687 -0.04793648421764374 0.030721742659807205 -2.072004556655884 -0.8852604031562805 0.12735919654369354 -0.0783439427614212 -0.028290895745158195 0.07191067188978195 -23.221332550048828 -39.099735260009766 -19.014812469482422 -1.3059861660003662 63.004188537597656 2.5569405555725098 -3.6938228607177734 -10.522327423095703 -10.283063888549805 -0.05646549165248871 0.10657833516597748 0.06373748928308487 28.583688735961914 -38.14452362060547 21.719379425048828 1.5709294080734253 64.90211486816406 -2.722334861755371 4.271173477172852 -10.540390968322754 13.88476848602295
-0.020696967840194702 -5.349857360124588 -0.03758873790502548 0.826194703578949 2.792982816696167 6.318933010101318 -4.337827682495117 7.5090532302856445 1.956703782081604 2.8768398761749268 -6.614869117736816 0.8621687293052673 -5.817859649658203 13.48620319366455 -5.593862056732178 7.567664623260498 -20.62834358215332 -9.296919822692871 -0.0884225144982338 0.2671077847480774 -0.09451808780431747 -0.19155853986740112 0.2021101713180542 -0.04307907074689865 0.20577895641326904 -0.12719053030014038 -0.0755973756313324 68.50667572021484 40.202484130859375 0.3345179557800293 -17.2430477142334 -9.951996803283691 32.564815521240234 -0.3147338330745697 -0.6836526393890381 -0.2354518175125122 0.08995504677295685 -0.3116684556007385 -0.059015799313783646 0.03568672761321068 0.04074389860033989 -0.08671505749225616 -0.11962158232927322 0.137071892619133 -0.12062117457389832 7.534067153930664 5.637796401977539 0.25440749526023865 -0.07877615094184875 0.09818879514932632 -0.0015579513274133205 2.9907846450805664 1.0303956270217896 0.10062503814697266 -0.15444183349609375 0.12971368432044983 0.11241870373487473 10.123503684997559 0.7816476225852966 -0.10779531300067902 0.09119553118944168 -0.1878996342420578 -0.07234279811382294 2.263195753097534 -0.8428491353988647 -0.14604505896568298 0.1398383378982544 0.10813456028699875 0.049117740243673325 -73.36516571044922 33.885223388671875 -10.374776840209961 12.475445747375488 -5.57615327835083 -22.376319885253906 0.8880448937416077 26.559738159179688 -4.2963104248046875 -0.23570843040943146 -0.14626556634902954 -0.07176242768764496 -0.10648644715547562 0.2536136507987976 -0.07312436401844025 0.010032241232693195 -0.0886295735836029 -0.06167851760983467 -7.735682487487793 5.649394512176514 -0.5431915521621704 0.10544082522392273 -0.23951606452465057 -0.04947023093700409 -2.7253293991088867 1.1332039833068848 -0.15477976202964783 0.2036302238702774 0.0996854230761528 -0.07158872485160828 -10.338629722595215 0.8541927933692932 0.10628402233123779 -0.14724601805210114 -0.11864970624446869 -0.22854779660701752 -2.2189786434173584 -0.935599148273468 0.40303608775138855 0.13288524746894836 0.061153095215559006 0.4222579002380371 -8.57247257232666 -24.133220672607422 3.3146519660949707 -0.33970844745635986 39.35921859741211 1.1921063661575317 -3.1809604167938232 -9.17475414276123 -10.765813827514648 0.022416478022933006 -0.027684690430760384 0.1114404946565628 9.603740692138672 -17.398893356323242 -2.1465694904327393 0.5997090339660645 35.650909423828125 -1.4371598958969116 4.36305570602417 -8.547637939453125 16.659828186035156
-0.033179111778736115 -5.437387898564339 -0.06023123860359192 0.33024221658706665 5.420691013336182 4.947847843170166 -5.057762622833252 6.853064060211182 3.298696517944336 2.086354970932007 -6.604832172393799 1.0232988595962524 -5.346348762512207 12.680087089538574 -3.8782050609588623 6.401684761047363 -19.717876434326172 -6.289942741394043 -0.15848718583583832 0.10375159233808517 0.27867835760116577 -0.35837480425834656 0.10288787633180618 -0.04945865273475647 0.2094331532716751 -0.20116038620471954 -0.18834739923477173 70.3247299194336 41.3910026550293 1.207276701927185 -17.523984909057617 -10.134201049804688 32.63399124145508 -0.02542116679251194 -0.28866833448410034 -0.05380526930093765 0.033530544489622116 -0.27264177799224854 0.11940313130617142 0.054314665496349335 -0.09638553857803345 0.020427074283361435 -0.04124761000275612 0.32849034667015076 -0.029934892430901527 7.617462158203125 5.727379322052002 0.2002202421426773 -0.06645753979682922 -0.06893425434827805 -0.10441666096448898 2.8369038105010986 1.0988458395004272 0.08117792010307312 -0.13469147682189941 0.1830807626247406 -0.035085130482912064 10.29871940612793 0.9655871987342834 -0.10569631308317184 0.10002896934747696 0.06917823106050491 -0.061366111040115356 1.9644464254379272 -0.43869855999946594 -0.13694916665554047 0.15297137200832367 0.10842908173799515 0.1738358587026596 -74.1415023803711 36.79746627807617 -10.02340316772461 12.496482849121094 -5.561460018157959 -22.575077056884766 0.9748074412345886 26.573278427124023 -4.381674289703369 -0.13909174501895905 0.12108055502176285 0.1297551691532135 0.23359082639217377 0.2689054012298584 0.01722021959722042 -0.13445217907428741 -0.13000838458538055 0.0727074071764946 -7.6610846519470215 5.279904365539551 -0.6414361596107483 0.01617332547903061 -0.09879627823829651 -0.02052471414208412 -2.734503746032715 0.9347904324531555 -0.29913944005966187 0.2511538863182068 -0.09665043652057648 -0.26013195514678955 -10.303909301757812 0.7440733313560486 -0.2706698477268219 -0.26047515869140625 -0.03422150760889053 -0.10142455250024796 -2.2180685997009277 -1.1213065385818481 0.14193440973758698 -0.1332615613937378 -0.16704460978507996 0.15065820515155792 -7.642473220825195 -25.77291488647461 5.560249328613281 -0.6399575471878052 38.66843032836914 1.4377368688583374 -2.695645809173584 -9.21451473236084 -10.973355293273926 0.027361297979950905 0.021708300337195396 -0.033112186938524246 6.909549713134766 -19.259464263916016 -5.164822578430176 0.36137962341308594 35.87115478515625 -0.9579576849937439 3.2897682189941406 -9.662656784057617 13.829092025756836
